<svg xmlns="http://www.w3.org/2000/svg" xmlns:xlink="http://www.w3.org/1999/xlink" version="1.1" x="0px" y="0px" viewBox="0 0 100 125" enable-background="new 0 0 100 100" xml:space="preserve"><polygon points="72.115,40.008 78.555,39.123 78.548,39.072 86.21,38.723 86.165,37.724 78.411,38.077 78.395,37.959 84.233,33.688   83.642,32.882 77.713,37.219 71.02,38.14 63.018,35.758 64.876,32.439 74.174,27.881 80.853,25.534 80.522,24.591 74.098,26.848   73.996,26.64 78.067,21.888 77.308,21.237 73.054,26.202 64.8,30.25 65.279,24.742 66.668,19.939 65.707,19.662 64.297,24.536   63.98,24.508 62.163,18.896 61.212,19.204 63.215,25.392 62.816,29.979 59.612,35.701 52.182,40.601 51.636,38.052 52.476,28.387   54.461,21.568 57.396,14.889 56.479,14.486 53.916,20.321 53.509,20.203 53.312,15.168 52.313,15.207 52.54,21.013 50.928,26.549   47.222,21.572 45.248,16.02 44.305,16.355 45.942,20.957 45.506,21.282 43.688,20.026 43.12,20.849 45.323,22.371 49.5,27.98   48.805,35.979 41.682,32.426 39.646,25.614 39.562,20.43 38.562,20.445 38.636,25.003 38.446,25.06 35.456,21.253 34.669,21.872   37.528,25.51 39.608,32.472 31.557,27.598 30.275,24.533 29.353,24.918 30.51,27.688 30.271,28.082 27.008,28.44 27.117,29.435   30.173,29.099 47.93,39.848 48.564,42.812 46.043,61.767 45.31,46.715 45.236,46.719 45.3,46.614 32.973,39.125 25.36,32.198   25.342,32.218 22.083,28.006 21.292,28.619 24.659,32.969 24.329,33.332 18.036,32.072 17.839,33.053 24.875,34.46 30.096,39.211   23.497,42.083 15.433,40.077 15.192,41.048 23.222,43.045 23.352,43.344 21.256,46.936 22.119,47.439 24.133,43.988 30.581,41.181   41.345,47.721 33.776,49.902 21.116,50.815 21.116,50.818 14.012,47.729 13.613,48.646 21.144,51.92 13.549,56.638 14.076,57.487   21.651,52.782 32.364,52.009 28.392,59.552 21.772,64.281 22.353,65.094 29.208,60.198 29.22,60.205 28.689,67.149 29.686,67.226   30.208,60.395 30.978,58.934 31.103,58.844 31.058,58.781 34.146,52.917 41.504,50.797 43.112,83.805 42.964,84.917 43.167,84.944   43.19,85.41 45.737,85.286 48.911,85.708 54.475,43.88 62.348,38.688 70.179,41.019 75.019,44.896 77.196,51.668 78.148,51.363   76.015,44.728 76.285,44.39 81.833,47.257 82.292,46.368 75.988,43.11 "/></svg>